PathFileType	4	(X/Y/Z)	C:/Users/opensim2020/Desktop/walking_exp_matlab/subject02_walking10_straight_01.trc	
DataRate	CameraRate	NumFrames	NumMarkers	Units	OrigDataRate	OrigDataStartFrame	OrigNumFrames	
100.00	100.00	6	43	mm	100.00	572	328	
Frame#	Time	LFHD			RFHD			LBHD			RBHD			C7			T10			CLAV			STRN			RBAK			LSHO			LUPA			LELB			LFRM			LWRA			LWRB			LFIN			RSHO			RUPA			RELB			RFRM			RWRA			RWRB			RFIN			LASI			RASI			LPSI			RPSI			LTHI			LKNE			LTIB			LANK			LHEE			LTOE			RTHI			RKNE			RTIB			RANK			RHEE			RTOE			*39			*40			*41			*42			
		X1	Y1	Z1	X2	Y2	Z2	X3	Y3	Z3	X4	Y4	Z4	X5	Y5	Z5	X6	Y6	Z6	X7	Y7	Z7	X8	Y8	Z8	X9	Y9	Z9	X10	Y10	Z10	X11	Y11	Z11	X12	Y12	Z12	X13	Y13	Z13	X14	Y14	Z14	X15	Y15	Z15	X16	Y16	Z16	X17	Y17	Z17	X18	Y18	Z18	X19	Y19	Z19	X20	Y20	Z20	X21	Y21	Z21	X22	Y22	Z22	X23	Y23	Z23	X24	Y24	Z24	X25	Y25	Z25	X26	Y26	Z26	X27	Y27	Z27	X28	Y28	Z28	X29	Y29	Z29	X30	Y30	Z30	X31	Y31	Z31	X32	Y32	Z32	X33	Y33	Z33	X34	Y34	Z34	X35	Y35	Z35	X36	Y36	Z36	X37	Y37	Z37	X38	Y38	Z38	X39	Y39	Z39	X40	Y40	Z40	X41	Y41	Z41	X42	Y42	Z42	X43	Y43	Z43	

124	1.230	1365.49292	-634.53467	1742.31384	1508.70471	-624.15295	1726.79736	1361.18896	-729.81598	1625.81262	1502.97278	-730.96783	1604.67041	1437.55591	-749.91125	1501.99036	1448.55884	-794.22473	1227.48218	1420.33179	-609.95636	1439.56030	1435.31689	-552.87494	1268.27954	1509.10999	-798.24493	1331.83801	1252.29187	-686.82428	1470.19299	1177.57336	-713.21570	1267.57690	1169.98535	-722.05511	1125.75354	1162.97217	-710.21442	993.20929	1197.71704	-649.42340	872.26990	1166.66187	-696.15985	871.22235	1165.16565	-674.96069	808.46930	1620.53711	-654.39136	1478.05652	1708.32813	-646.40912	1284.70105	1722.98694	-599.70105	1143.02222	1725.13843	-539.63428	1036.98071	1684.39355	-468.31113	928.36005	1728.11108	-501.57111	912.53241	1716.35156	-448.61105	864.15900	1314.60437	-544.94647	984.26563	1572.19116	-555.38135	952.17969	1387.30286	-761.27240	1013.30591	1500.85999	-766.68677	1005.63605	1243.03552	-547.40588	681.55188	1269.57239	-529.88458	479.34659	1262.14490	-548.61060	285.36618	1291.60901	-511.74310	67.27502	1342.94824	-544.05713	38.27980	1278.38379	-354.66266	35.48758	1629.60144	-700.53668	658.00854	1601.82983	-753.29907	456.46899	1600.67456	-878.42310	313.24893	1567.00769	-981.92645	149.09216	1507.43604	-1030.18555	113.08148	1589.42944	-871.17651	31.73378	1458.44214	-750.28912	1767.68481	-3360.32910	2845.27637	1034.16663						 
125	1.240	1362.25574	-627.79425	1743.20435	1505.47815	-617.24060	1728.04016	1358.31128	-722.68005	1626.47925	1500.14282	-723.70905	1605.61389	1435.17407	-742.64679	1502.79712	1446.45715	-786.30798	1228.11829	1417.97339	-602.51831	1440.74158	1432.84692	-544.98297	1269.64258	1506.85339	-790.50342	1332.47620	1249.97424	-679.01660	1471.30298	1174.79749	-704.46539	1268.48132	1167.48303	-712.15106	1126.78394	1159.94043	-700.81067	994.30054	1194.93677	-639.92542	872.97705	1163.43567	-686.78259	872.33466	1162.12915	-665.91498	809.23694	1618.05786	-647.06097	1479.58887	1705.36755	-640.21509	1285.90942	1720.24463	-593.69397	1144.29602	1722.80298	-534.40320	1037.71960	1682.69141	-463.65604	928.59650	1726.34924	-497.28000	913.02130	1714.54211	-445.05414	863.82324	1311.71851	-536.41241	987.17395	1568.35193	-546.48096	953.14471	1384.84680	-752.75226	1014.29706	1498.88806	-757.38654	1006.48694	1240.94238	-537.45117	682.73022	1267.92615	-524.09247	479.59311	1260.97913	-545.28827	285.78171	1291.59180	-510.81641	67.33839	1343.04382	-543.94556	38.46232	1278.81824	-354.19299	35.16642	1627.60645	-690.33240	658.46252	1602.60852	-741.16937	456.80035	1601.14636	-869.03784	316.34259	1567.18335	-975.92706	154.65961	1506.89856	-1024.18982	120.34100	1589.30420	-870.49731	31.78465	1455.15845	-743.54944	1768.47534	-3357.44067	2845.76416	1034.37683						 
126	1.250	1358.97339	-621.02277	1744.10254	1502.35815	-610.29041	1729.35681	1355.49719	-715.52441	1627.10413	1497.42053	-716.46515	1606.65320	1432.85254	-735.46954	1503.62451	1444.31274	-778.43005	1228.81055	1415.73706	-595.11035	1442.06750	1430.34644	-537.13470	1271.02808	1504.95496	-783.16248	1333.49951	1247.76245	-671.42932	1472.55042	1172.60352	-694.62793	1269.46387	1164.99341	-702.03381	1127.92188	1156.84058	-690.80548	995.68182	1192.08057	-630.75134	874.05701	1160.17383	-676.78271	873.29163	1158.85608	-656.41974	810.15497	1615.68884	-639.95038	1481.16797	1702.67017	-633.54919	1287.40381	1717.49329	-587.82892	1145.60083	1720.66980	-529.28168	1038.69922	1680.99817	-459.23041	928.68463	1724.74255	-493.05453	913.68176	1713.34790	-441.21994	863.94275	1308.83948	-528.12531	989.90729	1564.53833	-537.71515	954.38251	1382.42737	-744.24200	1015.12683	1496.96606	-748.54425	1007.44800	1238.92163	-528.61487	683.85577	1266.31824	-519.31085	479.74780	1260.51709	-542.84155	285.76657	1291.60620	-510.57452	67.28704	1343.02417	-543.94031	38.49371	1278.92761	-353.91605	34.92603	1625.68494	-679.95233	658.76355	1604.04321	-728.09802	456.98044	1601.74146	-858.72717	319.31711	1567.17993	-969.18079	160.48575	1506.12268	-1017.27887	128.27344	1589.01074	-869.58118	31.81827	1451.90247	-736.65613	1769.31702	-3360.27612	2845.17456	1034.25952						 
127	1.260	1355.86853	-614.07074	1744.97559	1499.23071	-603.30707	1730.75696	1352.76355	-708.47693	1627.80981	1494.79309	-709.25281	1607.84192	1430.53967	-728.19171	1504.52197	1442.20398	-770.64496	1229.59741	1413.54883	-587.70471	1443.45972	1427.97925	-529.23596	1272.51331	1502.92493	-775.36646	1334.20056	1245.63916	-663.98578	1473.83447	1170.01318	-685.63965	1270.62500	1162.62866	-691.75323	1129.11096	1153.98486	-680.69537	997.11652	1188.98364	-621.30035	874.95935	1156.49329	-666.94452	874.71631	1155.31348	-646.89429	811.15686	1613.14978	-632.98456	1482.63403	1699.83557	-627.10242	1288.83533	1714.75952	-581.99097	1146.98389	1718.95581	-524.09729	1039.82471	1679.63904	-454.80499	929.06372	1723.26416	-489.01300	914.34985	1712.03687	-437.55133	864.00195	1305.96863	-520.03687	992.46045	1560.54077	-529.50824	955.56604	1379.98206	-735.89941	1015.81390	1494.86108	-739.97424	1008.40601	1236.78687	-520.74530	684.60223	1264.58411	-515.28510	479.67947	1260.19922	-541.64667	285.69403	1291.57715	-510.42255	67.21273	1342.96619	-544.02948	38.53017	1279.01245	-353.72949	34.72005	1623.96033	-669.51007	658.97870	1605.74927	-714.34772	457.32474	1602.47559	-847.59442	322.18631	1567.05176	-961.30243	166.19795	1504.95691	-1009.34131	136.35393	1588.46484	-868.36053	31.92196	1448.71204	-729.81604	1770.33606	-3360.38403	2845.17407	1034.15405						 
128	1.270	1352.77539	-607.18781	1745.91199	1496.19312	-596.27185	1732.18115	1350.16003	-701.28217	1628.64771	1492.23950	-702.05353	1609.11316	1428.36694	-721.01935	1505.48401	1440.18994	-762.92218	1230.45374	1411.53906	-580.24957	1444.86853	1425.80481	-521.32208	1274.05127	1500.82874	-767.92853	1334.88696	1243.58325	-656.64294	1475.16882	1167.74316	-676.19885	1271.61475	1160.28699	-681.25354	1130.40125	1151.03381	-670.39294	998.70392	1186.15198	-611.17242	876.01880	1152.82837	-657.04077	876.14185	1151.85962	-637.40533	812.41394	1610.95715	-625.81256	1484.36218	1697.39380	-620.35535	1290.54175	1712.16943	-576.40222	1148.30713	1716.74756	-519.31317	1040.61157	1678.30359	-450.41431	929.20331	1721.95728	-485.03833	915.03693	1710.90698	-434.06064	864.11505	1303.07532	-512.02014	994.59308	1556.79297	-521.38599	956.86615	1377.41296	-727.65369	1016.48541	1492.57104	-731.76593	1009.47461	1234.96021	-513.82574	685.23962	1262.79517	-511.84146	479.74402	1259.59253	-540.77509	285.94879	1291.47302	-510.34747	67.16791	1343.07458	-544.35724	38.89102	1279.19482	-353.55045	34.69717	1622.37219	-659.04657	659.00281	1607.25024	-700.20404	457.24432	1603.30811	-835.80536	325.04953	1566.83679	-952.45978	171.86397	1503.94006	-1000.13568	144.30537	1587.85474	-866.99243	32.26238	1445.56592	-722.86755	1771.38940	-3360.25146	2845.13843	1034.20496						 
129	1.280	1349.80164	-600.16760	1746.75500	1493.22241	-589.20190	1733.55896	1347.60645	-694.35022	1629.33069	1489.79114	-694.86078	1610.39075	1426.20032	-713.71344	1506.31702	1438.17273	-755.23608	1231.26709	1409.42554	-572.85291	1446.28601	1423.62048	-513.54449	1275.48242	1499.20935	-760.27454	1336.03711	1241.58276	-649.31677	1476.46021	1165.16565	-667.21088	1272.85278	1157.90698	-670.92242	1131.65259	1148.11536	-660.01508	1000.14752	1183.04211	-601.14752	877.04901	1149.08545	-646.90302	877.65985	1148.34143	-626.87250	813.63232	1608.67578	-618.96265	1485.82190	1694.86670	-613.93127	1291.90613	1709.67957	-570.83771	1149.57886	1714.88220	-514.42883	1041.53223	1677.32373	-445.83295	929.61902	1720.71069	-480.99554	915.76630	1709.83411	-430.30438	864.08167	1300.25403	-504.22607	996.26306	1553.13306	-513.70374	958.01465	1374.68164	-719.54333	1017.15308	1490.02771	-723.90558	1010.59772	1232.79956	-508.40231	685.55206	1260.92761	-508.94763	479.91141	1258.23389	-539.93024	286.31543	1291.35034	-510.24323	67.13688	1342.75269	-544.34753	38.87172	1279.14319	-353.41833	34.37553	1620.93457	-648.44086	658.82788	1608.61255	-685.75665	456.98904	1604.11853	-823.29834	327.90607	1566.59998	-942.52087	177.19534	1502.98926	-990.00128	152.01183	1586.94043	-864.96436	32.65096	1442.56799	-715.92065	1772.43677	-3360.21094	2845.16650	1034.06445						 
